<svg width="3" height="12" viewBox="0 0 3 12" fill="none" xmlns="http://www.w3.org/2000/svg">
<path d="M1.31669 6.65C1.68488 6.65 1.98336 6.35152 1.98336 5.98333C1.98336 5.61514 1.68488 5.31667 1.31669 5.31667C0.948501 5.31667 0.650024 5.61514 0.650024 5.98333C0.650024 6.35152 0.948501 6.65 1.31669 6.65Z" stroke="#1C1C1C" stroke-width="1.3" stroke-linecap="round" stroke-linejoin="round"/>
<path d="M1.31669 6.65C1.68488 6.65 1.98336 6.35152 1.98336 5.98333C1.98336 5.61514 1.68488 5.31667 1.31669 5.31667C0.948501 5.31667 0.650024 5.61514 0.650024 5.98333C0.650024 6.35152 0.948501 6.65 1.31669 6.65Z" stroke="black" stroke-opacity="0.2" stroke-width="1.3" stroke-linecap="round" stroke-linejoin="round"/>
<path d="M1.31669 1.98333C1.68488 1.98333 1.98336 1.68486 1.98336 1.31667C1.98336 0.948476 1.68488 0.65 1.31669 0.65C0.948501 0.65 0.650024 0.948476 0.650024 1.31667C0.650024 1.68486 0.948501 1.98333 1.31669 1.98333Z" stroke="#1C1C1C" stroke-width="1.3" stroke-linecap="round" stroke-linejoin="round"/>
<path d="M1.31669 1.98333C1.68488 1.98333 1.98336 1.68486 1.98336 1.31667C1.98336 0.948476 1.68488 0.65 1.31669 0.65C0.948501 0.65 0.650024 0.948476 0.650024 1.31667C0.650024 1.68486 0.948501 1.98333 1.31669 1.98333Z" stroke="black" stroke-opacity="0.2" stroke-width="1.3" stroke-linecap="round" stroke-linejoin="round"/>
<path d="M1.31669 11.3167C1.68488 11.3167 1.98336 11.0182 1.98336 10.65C1.98336 10.2818 1.68488 9.98333 1.31669 9.98333C0.948501 9.98333 0.650024 10.2818 0.650024 10.65C0.650024 11.0182 0.948501 11.3167 1.31669 11.3167Z" stroke="#1C1C1C" stroke-width="1.3" stroke-linecap="round" stroke-linejoin="round"/>
<path d="M1.31669 11.3167C1.68488 11.3167 1.98336 11.0182 1.98336 10.65C1.98336 10.2818 1.68488 9.98333 1.31669 9.98333C0.948501 9.98333 0.650024 10.2818 0.650024 10.65C0.650024 11.0182 0.948501 11.3167 1.31669 11.3167Z" stroke="black" stroke-opacity="0.2" stroke-width="1.3" stroke-linecap="round" stroke-linejoin="round"/>
</svg>
