<svg width="17" height="17" viewBox="0 0 17 17" fill="none" xmlns="http://www.w3.org/2000/svg">
<path d="M15.0417 4.01478L10.2417 0.65645C8.93333 -0.260216 6.925 -0.210216 5.66667 0.764784L1.49167 4.02312C0.658333 4.67312 0 6.00645 0 7.05645V12.8065C0 14.9315 1.725 16.6648 3.85 16.6648H12.8333C14.9583 16.6648 16.6833 14.9398 16.6833 12.8148V7.16478C16.6833 6.03978 15.9583 4.65645 15.0417 4.01478ZM9.96667 14.3315C9.96667 14.3315 8.68346 14.3315 8.3418 14.3315C8.00013 14.3315 6.71667 14.3315 6.71667 14.3315V10.3315C6.71667 10.3315 8.00013 10.3315 8.3418 10.3315C8.68346 10.3315 9.96667 10.3315 9.96667 10.3315V14.3315Z" fill="#1B1464"/>
</svg>
